<svg width="27" height="26" viewBox="0 0 27 26" fill="none" xmlns="http://www.w3.org/2000/svg">
<path d="M10.6796 13.0859C10.3001 12.8444 10.1822 12.3444 10.4139 11.9588L10.8625 11.2122C11.0943 10.8265 11.5914 10.6959 11.9829 10.918L24.7948 18.1866C25.2004 18.4167 25.3367 18.9357 25.0965 19.3353L24.264 20.721C24.0237 21.1208 23.5012 21.244 23.1076 20.9936L10.6796 13.0859Z" fill="white"/>
<rect x="2.57031" y="12.6875" width="10.7838" height="6.63617" rx="1.65904" transform="rotate(-57 2.57031 12.6875)" fill="white"/>
<rect x="8.45312" y="2.79102" width="7.46569" height="1.65904" rx="0.829521" transform="rotate(33 8.45312 2.79102)" fill="white"/>
<rect x="2.70312" y="11.6484" width="7.46569" height="1.65904" rx="0.829521" transform="rotate(33 2.70312 11.6484)" fill="white"/>
<rect x="0.328125" y="21.1387" width="9.12473" height="2.48856" rx="0.829521" fill="white"/>
</svg>
